<?xml version="1.0" encoding="UTF-8" standalone="no"?>
<svg
   xmlns:dc="http://purl.org/dc/elements/1.1/"
   xmlns:cc="http://creativecommons.org/ns#"
   xmlns:rdf="http://www.w3.org/1999/02/22-rdf-syntax-ns#"
   xmlns:svg="http://www.w3.org/2000/svg"
   xmlns="http://www.w3.org/2000/svg"
   xmlns:xlink="http://www.w3.org/1999/xlink"
   xmlns:sodipodi="http://sodipodi.sourceforge.net/DTD/sodipodi-0.dtd"
   xmlns:inkscape="http://www.inkscape.org/namespaces/inkscape"
   viewBox="0 0 81.9 71.52"
   version="1.1"
   id="svg39"
   sodipodi:docname="logo.svg"
   inkscape:version="1.0beta2 (2b71d25, 2019-12-03)">
  <metadata
     id="metadata43">
    <rdf:RDF>
      <cc:Work
         rdf:about="">
        <dc:format>image/svg+xml</dc:format>
        <dc:type
           rdf:resource="http://purl.org/dc/dcmitype/StillImage" />
        <dc:title />
      </cc:Work>
    </rdf:RDF>
  </metadata>
  <sodipodi:namedview
     pagecolor="#ffffff"
     bordercolor="#666666"
     inkscape:document-rotation="0"
     borderopacity="1"
     objecttolerance="10"
     gridtolerance="10"
     guidetolerance="10"
     inkscape:pageopacity="0"
     inkscape:pageshadow="2"
     inkscape:window-width="1138"
     inkscape:window-height="794"
     id="namedview41"
     showgrid="false"
     showguides="true"
     inkscape:zoom="4.9951019"
     inkscape:cx="65.604324"
     inkscape:cy="46.160918"
     inkscape:window-x="0"
     inkscape:window-y="23"
     inkscape:window-maximized="0"
     inkscape:current-layer="Layer_1-2" />
  <defs
     id="defs17">
    <style
       id="style10">.cls-1{fill:#84aff1;}.cls-2{fill:#3865ab;}.cls-3{fill:url(#linear-gradient);}</style>
    <linearGradient
       id="linear-gradient"
       x1="42.95"
       y1="16.88"
       x2="81.9"
       y2="16.88"
       gradientUnits="userSpaceOnUse">
      <stop
         offset="0"
         stop-color="#f2cc0c"
         id="stop12" />
      <stop
         offset="1"
         stop-color="#ff9830"
         id="stop14" />
    </linearGradient>
    <style
       id="style88">.cls-1{fill:#3865ab;}.cls-2{fill:#84aff1;}.cls-3{fill:url(#linear-gradient);}</style>
    <linearGradient
       gradientTransform="translate(-37.768427,9.7095483)"
       id="linear-gradient-3"
       y1="21.17"
       x2="82.59"
       y2="21.17"
       gradientUnits="userSpaceOnUse">
      <stop
         offset="0"
         stop-color="#f2cc0c"
         id="stop90" />
      <stop
         offset="1"
         stop-color="#ff9830"
         id="stop92" />
    </linearGradient>
    <linearGradient
       gradientUnits="userSpaceOnUse"
       y2="51.114491"
       x2="-66.31041"
       y1="51.114491"
       x1="-74.31041"
       id="linearGradient992"
       xlink:href="#linear-gradient"
       inkscape:collect="always" />
    <linearGradient
       gradientUnits="userSpaceOnUse"
       y2="69.614494"
       x2="-66.31041"
       y1="69.614494"
       x1="-74.31041"
       id="linearGradient1000"
       xlink:href="#linear-gradient"
       inkscape:collect="always" />
  </defs>
  <g
     transform="translate(118.74901,-1.9507279)"
     data-name="Layer 1"
     id="Layer_1-2">
    <rect
       id="rect97"
       rx="1"
       height="62.889999"
       width="8"
       y="10.169492"
       x="-45.730412"
       class="cls-1" />
    <rect
       id="rect99"
       rx="1"
       height="28.889999"
       width="8"
       y="44.169491"
       x="-117.17041"
       class="cls-1" />
    <path
       inkscape:connector-curvature="0"
       id="path101"
       d="m -110.17041,73.059491 h -6 a 1,1 0 0 1 -1,-1 v -9.89 h 8 v 9.89 a 1,1 0 0 1 -1,1 z"
       class="cls-2" />
    <path
       inkscape:connector-curvature="0"
       id="path103"
       d="m -38.730412,73.059491 h -6 a 1,1 0 0 1 -1,-1 v -34.89 h 8 v 34.89 a 1,1 0 0 1 -1,1 z"
       class="cls-2" />
    <rect
       id="rect105"
       rx="1"
       height="32.889999"
       width="8"
       y="40.169491"
       x="-60.020412"
       class="cls-1" />
    <path
       inkscape:connector-curvature="0"
       id="path107"
       d="m -53.020412,73.059491 h -6 a 1,1 0 0 1 -1,-1 v -16.89 h 8 v 16.89 a 1,1 0 0 1 -1,1 z"
       class="cls-2" />
    <rect
       style="fill-opacity:1.0;fill:url(#linearGradient992)"
       id="rect109"
       rx="1"
       height="43.889999"
       width="8"
       y="29.169491"
       x="-74.31041"
       class="cls-1" />
    <path
       style="fill-opacity:1.0;fill:url(#linearGradient1000)"
       inkscape:connector-curvature="0"
       id="path111"
       d="m -67.310412,73.059491 h -6 a 1,1 0 0 1 -1,-1 v -5.89 h 8 v 5.89 a 1,1 0 0 1 -1,1 z"
       class="cls-2" />
    <rect
       id="rect113"
       rx="1"
       height="54.889999"
       width="8"
       y="18.169491"
       x="-88.590408"
       class="cls-1" />
    <path
       inkscape:connector-curvature="0"
       id="path115"
       d="m -81.590412,73.059491 h -6 a 1,1 0 0 1 -1,-1 v -38.89 h 8 v 38.89 a 1,1 0 0 1 -1,1 z"
       class="cls-2" />
    <rect
       id="rect117"
       rx="1"
       height="44.889999"
       width="8"
       y="28.169491"
       x="-102.88041"
       class="cls-1" />
    <path
       inkscape:connector-curvature="0"
       id="path119"
       d="m -95.880412,73.059491 h -5.999998 a 1,1 0 0 1 -1,-1 v -25.89 h 7.999998 v 25.89 a 1,1 0 0 1 -1,1 z"
       class="cls-2" />
  </g>
</svg>
